<?xml version="1.0"?>
<svg xmlns="http://www.w3.org/2000/svg" id="Outline" viewBox="0 0 512 512" width="512" height="512"><path d="M456,88H240V80a40.045,40.045,0,0,0-40-40H56A40.045,40.045,0,0,0,16,80V432a40.045,40.045,0,0,0,40,40H456a40.045,40.045,0,0,0,40-40V128A40.045,40.045,0,0,0,456,88Zm0,16a24.028,24.028,0,0,1,24,24v16.022A39.788,39.788,0,0,0,456,136H240V104Zm24,328a24.028,24.028,0,0,1-24,24H56a24.028,24.028,0,0,1-24-24V80A24.028,24.028,0,0,1,56,56h64V88H104a8,8,0,0,0,0,16h16v32H104a8,8,0,0,0,0,16h16v32H104a8,8,0,0,0,0,16h16v32H104a8,8,0,0,0,0,16h16v32H104a8,8,0,0,0,0,16h16v32h-4a8,8,0,0,0-7.7,5.834l-8.914,31.693A27.446,27.446,0,0,0,96,378.667C96,394.841,110.355,408,128,408s32-13.159,32-29.333a27.446,27.446,0,0,0-3.385-13.14L147.7,333.834A8,8,0,0,0,140,328h-4V296h16a8,8,0,0,0,0-16H136V248h16a8,8,0,0,0,0-16H136V200h16a8,8,0,0,0,0-16H136V152h16a8,8,0,0,0,0-16H136V104h16a8,8,0,0,0,0-16H136V56h64a24.028,24.028,0,0,1,24,24v64a8,8,0,0,0,8,8H456a24.028,24.028,0,0,1,24,24ZM122.061,344h11.878l7.54,26.805a8,8,0,0,0,.842,1.952,11.352,11.352,0,0,1,1.679,5.91c0,7.352-7.178,13.333-16,13.333s-16-5.981-16-13.333a11.352,11.352,0,0,1,1.679-5.91,8,8,0,0,0,.842-1.952Z"/></svg>
