<svg xmlns="http://www.w3.org/2000/svg" width="30" height="25" viewBox="0 0 30 25">
  <defs>
    <style>
      .cls-1 {
        fill: #707afe;
        fill-rule: evenodd;
      }
    </style>
  </defs>
  <path id="folder_icon_copy" data-name="folder icon copy" class="cls-1" d="M3378.81,835.715a3.909,3.909,0,0,0-2.85-1.172h-12.11v-0.568a3.812,3.812,0,0,0-1.19-2.806,3.941,3.941,0,0,0-2.85-1.172h-5.77a3.909,3.909,0,0,0-2.85,1.172,3.812,3.812,0,0,0-1.19,2.806v17.05a3.81,3.81,0,0,0,1.19,2.805,3.906,3.906,0,0,0,2.85,1.173h21.92a3.906,3.906,0,0,0,2.85-1.173,3.81,3.81,0,0,0,1.19-2.805v-12.5A3.815,3.815,0,0,0,3378.81,835.715Z" transform="translate(-3350 -830)"/>
</svg>
