<svg xmlns="http://www.w3.org/2000/svg" width="22.47" height="22.469" viewBox="0 0 22.47 22.469">
  <defs>
    <style>
      .cls-1 {
        fill: #fff;
        fill-rule: evenodd;
      }
    </style>
  </defs>
  <path id="settings" class="cls-1" d="M3255.33,961.023l-1.58-.268a8.474,8.474,0,0,0-.63-1.531l0.93-1.3a1.4,1.4,0,0,0-.15-1.79l-1.4-1.4a1.372,1.372,0,0,0-.98-0.409,1.4,1.4,0,0,0-.81.258l-1.3.93a8.931,8.931,0,0,0-1.59-.652l-0.26-1.56a1.385,1.385,0,0,0-1.37-1.16h-1.98a1.385,1.385,0,0,0-1.37,1.16l-0.27,1.6a8.619,8.619,0,0,0-1.53.643l-1.29-.929a1.4,1.4,0,0,0-.81-0.259,1.372,1.372,0,0,0-.98.409l-1.41,1.4a1.408,1.408,0,0,0-.15,1.79l0.94,1.319a9.381,9.381,0,0,0-.62,1.536l-1.56.263a1.389,1.389,0,0,0-1.16,1.371v1.978a1.389,1.389,0,0,0,1.16,1.371l1.6,0.272a8.6,8.6,0,0,0,.64,1.527l-0.93,1.286a1.4,1.4,0,0,0,.15,1.79l1.4,1.4a1.4,1.4,0,0,0,.99.409,1.371,1.371,0,0,0,.8-0.259l1.32-.939a8.781,8.781,0,0,0,1.48.611l0.27,1.578a1.385,1.385,0,0,0,1.37,1.16h1.98a1.385,1.385,0,0,0,1.37-1.16l0.27-1.578a9.051,9.051,0,0,0,1.53-.634l1.3,0.93a1.378,1.378,0,0,0,.81.258h0a1.372,1.372,0,0,0,.98-0.409l1.4-1.4a1.4,1.4,0,0,0,.15-1.79l-0.93-1.3a8.718,8.718,0,0,0,.63-1.531l1.58-.263a1.389,1.389,0,0,0,1.16-1.371v-1.978A1.371,1.371,0,0,0,3255.33,961.023Zm-0.11,3.349a0.12,0.12,0,0,1-.1.122l-1.97.328a0.633,0.633,0,0,0-.51.465,7.443,7.443,0,0,1-.82,1.968,0.639,0.639,0,0,0,.03.69l1.16,1.635a0.134,0.134,0,0,1-.01.159l-1.4,1.4a0.137,0.137,0,0,1-.09.038,0.114,0.114,0,0,1-.07-0.024l-1.63-1.16a0.633,0.633,0,0,0-.69-0.028,7.6,7.6,0,0,1-1.97.817,0.639,0.639,0,0,0-.47.507l-0.33,1.973a0.12,0.12,0,0,1-.12.1h-1.98a0.12,0.12,0,0,1-.12-0.1l-0.33-1.973a0.621,0.621,0,0,0-.46-0.507,7.762,7.762,0,0,1-1.93-.789,0.654,0.654,0,0,0-.32-0.084,0.625,0.625,0,0,0-.37.117l-1.64,1.169a0.14,0.14,0,0,1-.07.024,0.122,0.122,0,0,1-.09-0.038l-1.4-1.4a0.122,0.122,0,0,1-.01-0.16l1.15-1.62a0.628,0.628,0,0,0,.03-0.695,7.74,7.74,0,0,1-.83-1.963,0.631,0.631,0,0,0-.5-0.465l-1.99-.338a0.12,0.12,0,0,1-.1-0.122v-1.978a0.12,0.12,0,0,1,.1-0.122l1.96-.328a0.632,0.632,0,0,0,.51-0.47,7.435,7.435,0,0,1,.8-1.973,0.612,0.612,0,0,0-.03-0.685l-1.17-1.644a0.123,0.123,0,0,1,.02-0.16l1.4-1.4a0.1,0.1,0,0,1,.08-0.038,0.146,0.146,0,0,1,.08.024l1.62,1.155a0.632,0.632,0,0,0,.69.028,7.419,7.419,0,0,1,1.96-.826,0.645,0.645,0,0,0,.47-0.507l0.34-1.987a0.12,0.12,0,0,1,.12-0.1h1.98a0.12,0.12,0,0,1,.12.1l0.33,1.958a0.624,0.624,0,0,0,.47.512,7.61,7.61,0,0,1,2.01.827,0.635,0.635,0,0,0,.69-0.028l1.62-1.165a0.181,0.181,0,0,1,.07-0.024,0.122,0.122,0,0,1,.09.038l1.4,1.4a0.136,0.136,0,0,1,.02.16l-1.16,1.63a0.62,0.62,0,0,0-.03.69,7.43,7.43,0,0,1,.81,1.968,0.645,0.645,0,0,0,.51.465l1.97,0.333a0.129,0.129,0,0,1,.11.122v1.978h-0.01Zm-9.98-5.843a4.852,4.852,0,1,0,4.85,4.852A4.858,4.858,0,0,0,3245.24,958.529Zm0,8.435a3.584,3.584,0,1,1,3.59-3.583A3.587,3.587,0,0,1,3245.24,966.964Z" transform="translate(-3234 -952.156)"/>
</svg>
