<?xml version="1.0"?>
<svg xmlns="http://www.w3.org/2000/svg" xmlns:xlink="http://www.w3.org/1999/xlink" version="1.1" id="Layer_1" x="0px" y="0px" viewBox="0 0 469.333 469.333" style="enable-background:new 0 0 469.333 469.333;" xml:space="preserve" width="512px" height="512px"><g><g>
	<g>
		<g>
			<path d="M467.784,154.79l0.143-0.082L382.594,5.375C380.698,2.052,377.156,0,373.333,0H96c-3.823,0-7.365,2.052-9.26,5.375     L1.406,154.708l0.143,0.082C0.652,156.353,0,158.066,0,160v266.667c0,23.531,19.135,42.667,42.667,42.667h384     c23.531,0,42.667-19.135,42.667-42.667V160C469.333,158.066,468.681,156.353,467.784,154.79z M102.187,21.333h264.958l73.142,128     H29.046L102.187,21.333z M448,426.667c0,11.76-9.573,21.333-21.333,21.333h-384c-11.76,0-21.333-9.573-21.333-21.333v-256H448     V426.667z" data-original="#000000" class="active-path" data-old_color="#000000" fill="#BABABA"/>
			<path d="M149.333,298.667H320c23.531,0,42.667-19.135,42.667-42.667S343.531,213.333,320,213.333H149.333     c-23.531,0-42.667,19.135-42.667,42.667S125.802,298.667,149.333,298.667z M149.333,234.667H320     c11.76,0,21.333,9.573,21.333,21.333c0,11.76-9.573,21.333-21.333,21.333H149.333C137.573,277.333,128,267.76,128,256     C128,244.24,137.573,234.667,149.333,234.667z" data-original="#000000" class="active-path" data-old_color="#000000" fill="#BABABA"/>
		</g>
	</g>
</g></g> </svg>
